<svg id="Icons" xmlns="http://www.w3.org/2000/svg" viewBox="0 0 27.92 23.92"><defs><style>.cls-1{fill:#fff}</style></defs><title>tw-icon</title><path class="cls-1" d="M1900-97.44a11.12 11.12 0 0 1-3.64 1.47 5.58 5.58 0 0 0-4.18-1.91 5.89 5.89 0 0 0-5.73 6 6.46 6.46 0 0 0 .15 1.38 16 16 0 0 1-11.81-6.31 6.27 6.27 0 0 0-.78 3 6.13 6.13 0 0 0 2.55 5 5.48 5.48 0 0 1-2.59-.76v.08a6 6 0 0 0 4.6 5.92 5.47 5.47 0 0 1-1.51.21 5.42 5.42 0 0 1-1.08-.11 5.79 5.79 0 0 0 5.35 4.19 11.13 11.13 0 0 1-7.12 2.59 11.11 11.11 0 0 1-1.37-.08 15.63 15.63 0 0 0 8.78 2.71c10.54 0 16.3-9.2 16.3-17.18v-.78a12 12 0 0 0 2.86-3.13 11 11 0 0 1-3.29 1 6 6 0 0 0 2.51-3.29z" transform="translate(-1872.84 97.88)"/></svg>