<svg id="Layer_1" data-name="Layer 1" xmlns="http://www.w3.org/2000/svg" viewBox="0 0 80.48 90"><defs><style>.cls-1{fill:#afafaf;}</style></defs><title>share-icon</title><path class="cls-1" d="M74.36,63.23a15.85,15.85,0,0,0-12.49,6.1l-21.69-13a15.78,15.78,0,0,0,0-12.73l21.69-13a15.8,15.8,0,1,0-2.06-3.43l-21.69,13a15.88,15.88,0,1,0,0,19.59l21.69,13a15.88,15.88,0,1,0,14.55-9.54ZM74.36,9A11.88,11.88,0,1,1,62.47,20.88,11.9,11.9,0,0,1,74.36,9ZM25.64,61.88A11.88,11.88,0,1,1,37.53,50,11.9,11.9,0,0,1,25.64,61.88ZM74.36,91A11.88,11.88,0,1,1,86.24,79.12,11.9,11.9,0,0,1,74.36,91Z" transform="translate(-9.76 -5)"/></svg>