<svg id="Layer_1" data-name="Layer 1" xmlns="http://www.w3.org/2000/svg" viewBox="0 0 371.65 88.82"><defs><style>.cls-1{fill:#fff;}</style></defs><title>SSC-Advent-white</title><line class="cls-1" x1="184.36" y1="37.32" x2="184.36" y2="71.82"/><path class="cls-1" d="M317,422.78a.25.25,0,0,1-.25-.25V388a.25.25,0,0,1,.5,0v34.5A.25.25,0,0,1,317,422.78Z" transform="translate(-132.67 -350.71)"/><path class="cls-1" d="M220.78,413c0,2.78,2.27,4.77,5.43,4.77a9,9,0,0,0,6.12-2.83l0,0L225,407.65C222.06,409,220.78,410.92,220.78,413Z" transform="translate(-132.67 -350.71)"/><path class="cls-1" d="M232.14,397.27a3.5,3.5,0,0,0-3.71-3.71,3.7,3.7,0,0,0-3.85,3.94c0,1.67.65,2.87,2.46,4.87C230.38,401.16,232.14,399.68,232.14,397.27Z" transform="translate(-132.67 -350.71)"/><polygon class="cls-1" points="92.43 56.9 92.43 56.9 92.42 56.9 92.43 56.9"/><path class="cls-1" d="M285,416.14a15.84,15.84,0,0,1-10.76,4.19c-8.68,0-15.15-6.11-15.15-15.63,0-9.24,6-15.77,15.15-15.77a16,16,0,0,1,9.51,3.18h12.49A25.32,25.32,0,0,0,249.64,399V350.71H207.81V414.9c-.13-9.34-8.17-12.24-15.2-14.72-6.18-2.08-11.6-3.54-11.6-7.16,0-3.33,3.06-5.21,7.5-5.21a9.42,9.42,0,0,1,8.2,4.29h10.41c-2.26-7.38-9.29-12.7-18.26-12.7-10.28,0-17.79,6.46-17.79,14,0,8.47,7.09,11.39,12.92,13.48,6.88,2.5,13.76,4,13.76,8.68,0,3.13-3,5.63-7.85,5.63a11.29,11.29,0,0,1-9.74-5.09h-9.29c0-.34.06-.68.06-1,0-9.52-8.13-12.43-15.21-14.94-6.18-2.08-11.6-3.54-11.6-7.16,0-3.33,3.06-5.21,7.5-5.21a9.42,9.42,0,0,1,8.2,4.29h10.41c-2.25-7.38-9.29-12.7-18.26-12.7-10.28,0-17.78,6.46-17.78,14,0,8.47,7.09,11.39,12.92,13.48,6.88,2.5,13.75,4,13.75,8.68,0,3.13-3,5.63-7.85,5.63a11.29,11.29,0,0,1-9.74-5.09H132.67c2.81,8.4,9.71,13.84,19.63,13.84,9.61,0,16.52-4.63,18.21-11.5,3.24,7,9.73,11.5,18.69,11.5,11,0,18.48-6.08,18.61-14.65v24.19h41.83V410.45a25.35,25.35,0,0,0,47.27,5.69Zm-43.92,7.59-5.47-5.47,0,0a14.28,14.28,0,0,1-10,4.22c-6,0-10.57-3.62-10.57-9.32,0-4.22,2.46-7.23,6.91-9.14-1.86-2.41-2.69-4.41-2.69-6.82,0-4.4,3.52-8.21,9.32-8.21,5.15,0,8.62,3.43,8.62,7.88s-2.83,6.86-7.14,8.48l2.15,2.18h8.88Z" transform="translate(-132.67 -350.71)"/><path class="cls-1" d="M504.31,392.78c0,2.68-1.54,3.26-3.31,3.26s-3.31-.58-3.31-3.26,1.55-3.26,3.31-3.26,3.31.56,3.31,3.26m-5.77,0c0,2.12,1,2.49,2.46,2.49s2.46-.36,2.46-2.49-1-2.49-2.46-2.49-2.46.36-2.46,2.49m2.53.51h-.67v.87a.33.33,0,0,1-.34.36H500a.33.33,0,0,1-.34-.36v-2.75A.33.33,0,0,1,500,391h1.21c.89,0,1.21.46,1.21,1.11a1,1,0,0,1-.51,1l.58,1c.12.22-.07.34-.24.34h-.15a.45.45,0,0,1-.43-.24Zm0-1.52h-.72v.77h.72c.39,0,.44-.17.44-.39s0-.39-.44-.39m-150.92-.19,8.4,28.17c.63,2.06-.58,3.26-2.32,3.26h-1.92c-1.83,0-2.55-.67-3-2.37l-1.16-4.51h-9.56l-1.16,4.51a2.6,2.6,0,0,1-3,2.37h-1.92c-1.74,0-2.95-1.21-2.32-3.26l8.48-28.17c.49-1.7,1.43-2.23,3.12-2.23h3.22c1.7,0,2.63.54,3.12,2.23m-8.08,18.89h6.61l-3.26-12.68ZM364.2,423a2.19,2.19,0,0,1-2.5-2.5V392a2.19,2.19,0,0,1,2.5-2.5h8.35c11.34,0,14.29,7.23,14.29,16.74S383.89,423,372.55,423Zm4.64-6.52h3.84c5.23,0,6.74-3.75,6.74-10.23S377.9,396,372.68,396h-3.84ZM396.31,421l-8.4-28.17c-.62-2.05.58-3.26,2.32-3.26h1.92c1.83,0,2.55.67,3,2.37L401,415l6-23.13a2.6,2.6,0,0,1,3-2.37h1.92c1.74,0,2.95,1.21,2.32,3.26L405.77,421c-.49,1.7-1.43,2.23-3.12,2.23h-3.22c-1.7,0-2.63-.54-3.12-2.23m21-28.93a2.19,2.19,0,0,1,2.5-2.5h16.34a2.19,2.19,0,0,1,2.5,2.5v1.52c0,1.74-.8,2.5-2.5,2.5h-11.7v6.48h10.36c1.74,0,2.54.8,2.54,2.5v1.38c0,1.7-.8,2.5-2.54,2.5H424.41v7.59h12.06c1.7,0,2.5.76,2.5,2.5v1.52a2.19,2.19,0,0,1-2.5,2.5h-16.7a2.19,2.19,0,0,1-2.5-2.5Zm33.14,28.49a2.19,2.19,0,0,1-2.5,2.5h-2a2.19,2.19,0,0,1-2.5-2.5V392a2.19,2.19,0,0,1,2.5-2.5h2.86a2.52,2.52,0,0,1,2.46,1.38l10,18.62-.13-17.5a2.19,2.19,0,0,1,2.5-2.5h2c1.74,0,2.5.8,2.5,2.5v28.49c0,1.7-.76,2.5-2.5,2.5h-2.81a2.46,2.46,0,0,1-2.46-1.39L450.28,403ZM473.85,396c-1.7,0-2.5-.76-2.5-2.5V392a2.19,2.19,0,0,1,2.5-2.5h18.31a2.19,2.19,0,0,1,2.5,2.5v1.52c0,1.74-.8,2.5-2.5,2.5h-5.58v24.47a2.19,2.19,0,0,1-2.5,2.5H482c-1.74,0-2.54-.81-2.54-2.5V396Z" transform="translate(-132.67 -350.71)"/></svg>