<?xml version="1.0" encoding="utf-8"?>
<!-- Generator: Adobe Illustrator 19.2.1, SVG Export Plug-In . SVG Version: 6.00 Build 0)  -->
<svg version="1.1" id="Layer_1" xmlns="http://www.w3.org/2000/svg" xmlns:xlink="http://www.w3.org/1999/xlink" x="0px" y="0px"
	 viewBox="0 0 18 14" style="enable-background:new 0 0 18 14;" xml:space="preserve">
<style type="text/css">
	.st0{fill:#157295;}
</style>
<g>
	<path class="st0" d="M18,2.7c0,0.3-0.1,0.6-0.3,0.8l-8.4,8.5l-1.6,1.6C7.5,13.9,7.2,14,6.9,14c-0.3,0-0.6-0.1-0.8-0.3l-1.6-1.6
		L0.3,7.8C0.1,7.6,0,7.3,0,7s0.1-0.6,0.3-0.8l1.6-1.6c0.2-0.2,0.5-0.3,0.8-0.3s0.6,0.1,0.8,0.3l3.4,3.5l7.6-7.7
		C14.7,0.1,15,0,15.3,0c0.3,0,0.6,0.1,0.8,0.3l1.6,1.6C17.9,2.2,18,2.4,18,2.7z"/>
</g>
</svg>
